<svg width="162" height="40" viewBox="0 0 162 40" fill="none" xmlns="http://www.w3.org/2000/svg">
<path d="M15.4129 11.3865C15.7623 11.3865 15.9369 11.3865 16.0704 11.4543C16.1877 11.5139 16.2832 11.609 16.343 11.726C16.411 11.8591 16.411 12.0332 16.411 12.3815V27.5878C16.411 27.9361 16.411 28.1103 16.343 28.2433C16.2832 28.3603 16.1877 28.4554 16.0704 28.5151C15.9369 28.5828 15.7623 28.5828 15.4129 28.5828H12.8637C12.6912 28.5828 12.605 28.5828 12.5251 28.5613C12.4544 28.5423 12.3875 28.511 12.3277 28.4688C12.2601 28.4212 12.2051 28.355 12.0951 28.2226L5.31036 20.0574C5.14723 19.8611 5.06566 19.763 4.99437 19.7527C4.93264 19.7437 4.8705 19.7661 4.82868 19.8122C4.78038 19.8655 4.78038 19.9929 4.78038 20.2479V27.5878C4.78038 27.9361 4.78038 28.1103 4.71239 28.2433C4.65258 28.3603 4.55716 28.4554 4.43979 28.5151C4.30636 28.5828 4.13168 28.5828 3.78233 28.5828H0.998054C0.648707 28.5828 0.474033 28.5828 0.3406 28.5151C0.223229 28.4554 0.127803 28.3603 0.068 28.2433C1.252e-05 28.1103 1.252e-05 27.9361 1.252e-05 27.5878V12.3815C1.252e-05 12.0332 1.252e-05 11.8591 0.068 11.726C0.127803 11.609 0.223229 11.5139 0.3406 11.4543C0.474033 11.3865 0.648706 11.3865 0.998054 11.3865H3.54728C3.71973 11.3865 3.80596 11.3865 3.88582 11.408C3.95658 11.427 4.02342 11.4583 4.08327 11.5005C4.15082 11.5481 4.20583 11.6143 4.31585 11.7467L11.1006 19.9119C11.2637 20.1082 11.3453 20.2064 11.4166 20.2167C11.4783 20.2256 11.5405 20.2033 11.5823 20.1571C11.6306 20.1038 11.6306 19.9764 11.6306 19.7214V12.3815C11.6306 12.0332 11.6306 11.8591 11.6986 11.726C11.7584 11.609 11.8538 11.5139 11.9712 11.4543C12.1046 11.3865 12.2793 11.3865 12.6286 11.3865H15.4129Z" fill="white"/>
<path d="M24.7651 15.1451C24.6603 15.1451 24.6079 15.1451 24.5678 15.1654C24.5326 15.1833 24.504 15.2119 24.486 15.247C24.4656 15.2869 24.4656 15.3391 24.4656 15.4436V18.6298C24.4656 18.7343 24.4656 18.7865 24.486 18.8264C24.504 18.8615 24.5326 18.8901 24.5678 18.908C24.6079 18.9283 24.6603 18.9283 24.7651 18.9283H31.0817C31.431 18.9283 31.6057 18.9283 31.7391 18.9961C31.8565 19.0557 31.9519 19.1508 32.0117 19.2679C32.0797 19.4009 32.0797 19.575 32.0797 19.9233V21.6919C32.0797 22.0402 32.0797 22.2144 32.0117 22.3474C31.9519 22.4644 31.8565 22.5595 31.7391 22.6192C31.6057 22.6869 31.431 22.6869 31.0817 22.6869H24.7651C24.6603 22.6869 24.6079 22.6869 24.5678 22.7073C24.5326 22.7252 24.504 22.7537 24.486 22.7888C24.4656 22.8287 24.4656 22.881 24.4656 22.9854V27.5878C24.4656 27.9361 24.4656 28.1103 24.3977 28.2433C24.3379 28.3603 24.2424 28.4554 24.1251 28.5151C23.9916 28.5828 23.817 28.5828 23.4676 28.5828H20.5848C20.2354 28.5828 20.0607 28.5828 19.9273 28.5151C19.8099 28.4554 19.7145 28.3603 19.6547 28.2433C19.5867 28.1103 19.5867 27.9361 19.5867 27.5878V12.3815C19.5867 12.0332 19.5867 11.8591 19.6547 11.726C19.7145 11.609 19.8099 11.5139 19.9273 11.4543C20.0607 11.3865 20.2354 11.3865 20.5848 11.3865H32.1166C32.466 11.3865 32.6406 11.3865 32.7741 11.4543C32.8914 11.5139 32.9869 11.609 33.0467 11.726C33.1147 11.8591 33.1147 12.0332 33.1147 12.3815V14.1501C33.1147 14.4984 33.1147 14.6725 33.0467 14.8056C32.9869 14.9226 32.8914 15.0177 32.7741 15.0773C32.6406 15.1451 32.466 15.1451 32.1166 15.1451H24.7651Z" fill="white"/>
<path fill-rule="evenodd" clip-rule="evenodd" d="M48.9489 2.98425C49.4627 2.92963 49.8349 2.47007 49.7801 1.95779C49.7253 1.4455 49.2643 1.0745 48.7505 1.12911L46.8396 1.33223C45.8606 1.43628 45.0754 1.51974 44.4377 1.63501C43.7807 1.75376 43.2177 1.91608 42.6948 2.20825C41.8457 2.68262 41.1419 3.37774 40.6584 4.21953C40.3606 4.73811 40.1929 5.29772 40.0682 5.95113C39.9472 6.5853 39.857 7.36659 39.7445 8.3405L39.7397 8.38245L39.552 10.2428C39.5003 10.7554 39.8752 11.2127 40.3894 11.2642C40.9035 11.3158 41.3623 10.942 41.414 10.4294L41.6002 8.58251C41.7173 7.56881 41.8002 6.85751 41.9066 6.29974C42.011 5.75233 42.1276 5.41602 42.2824 5.14656C42.5973 4.59814 43.056 4.14504 43.6096 3.83574C43.8818 3.68369 44.2207 3.57028 44.7715 3.47073C45.3339 3.36908 46.0509 3.29228 47.0733 3.1836L48.9489 2.98425ZM67.1522 1.9578C67.0974 2.47008 67.4695 2.92965 67.9834 2.98426L69.8589 3.18362C70.8814 3.2923 71.5984 3.3691 72.1608 3.47075C72.7116 3.5703 73.0505 3.68371 73.3227 3.83576C73.8762 4.14506 74.3349 4.59816 74.6499 5.14658C74.8047 5.41604 74.9212 5.75235 75.0257 6.29976C75.1321 6.85753 75.2149 7.56883 75.332 8.58253L75.5183 10.4295C75.57 10.942 76.0287 11.3158 76.5429 11.2643C77.0571 11.2127 77.432 10.7554 77.3803 10.2428L77.1926 8.38247L77.1878 8.34052C77.0753 7.36661 76.985 6.58532 76.8641 5.95114C76.7394 5.29774 76.5717 4.73813 76.2739 4.21955C75.7904 3.37776 75.0865 2.68263 74.2375 2.20827C73.7146 1.9161 73.1516 1.75378 72.4946 1.63503C71.8569 1.51976 71.0717 1.4363 70.0927 1.33225L68.1818 1.12913C67.6679 1.07451 67.207 1.44552 67.1522 1.9578ZM67.1522 38.0144C67.0974 37.5021 67.4695 37.0426 67.9834 36.9879L69.8589 36.7886C70.8814 36.6799 71.5984 36.6031 72.1608 36.5015C72.7116 36.4019 73.0505 36.2885 73.3227 36.1364C73.8762 35.8271 74.3349 35.374 74.6499 34.8256C74.8047 34.5562 74.9212 34.2199 75.0257 33.6725C75.1321 33.1147 75.2149 32.4034 75.332 31.3897L75.5183 29.5428C75.57 29.0302 76.0287 28.6564 76.5429 28.7079C77.0571 28.7595 77.432 29.2168 77.3803 29.7294L77.1926 31.5897L77.1878 31.6317C77.0753 32.6056 76.985 33.3869 76.8641 34.0211C76.7394 34.6745 76.5717 35.2341 76.2739 35.7527C75.7904 36.5945 75.0865 37.2896 74.2375 37.7639C73.7146 38.0561 73.1516 38.2184 72.4946 38.3372C71.8569 38.4524 71.0717 38.5359 70.0927 38.64L68.1818 38.8431C67.6679 38.8977 67.207 38.5267 67.1522 38.0144ZM49.7801 38.0144C49.8349 37.5021 49.4627 37.0426 48.9489 36.9879L47.0734 36.7886C46.0509 36.6799 45.3339 36.6031 44.7715 36.5015C44.2207 36.4019 43.8818 36.2885 43.6096 36.1364C43.056 35.8271 42.5973 35.374 42.2824 34.8256C42.1276 34.5562 42.011 34.2199 41.9066 33.6725C41.8002 33.1147 41.7173 32.4034 41.6002 31.3897L41.414 29.5428C41.3623 29.0302 40.9035 28.6564 40.3894 28.7079C39.8752 28.7595 39.5003 29.2168 39.552 29.7294L39.7397 31.5897L39.7445 31.6317C39.857 32.6056 39.9472 33.3869 40.0682 34.0211C40.1929 34.6745 40.3606 35.2341 40.6584 35.7527C41.1419 36.5945 41.8458 37.2896 42.6948 37.7639C43.2177 38.0561 43.7807 38.2184 44.4377 38.3372C45.0754 38.4524 45.8606 38.5359 46.8395 38.6399L46.8396 38.64H46.8396L48.7505 38.8431C49.2644 38.8977 49.7253 38.5267 49.7801 38.0144ZM49.2695 12.7922C48.8249 12.7922 48.4644 13.1527 48.4644 13.5973V26.6468C48.4644 27.0915 48.8249 27.4519 49.2695 27.4519H51.8186C52.2632 27.4519 52.6237 27.0915 52.6237 26.6468V13.5973C52.6237 13.1527 52.2632 12.7922 51.8186 12.7922H49.2695ZM56.1613 12.7922C55.7167 12.7922 55.3562 13.1527 55.3562 13.5973V26.6468C55.3562 27.0915 55.7167 27.4519 56.1613 27.4519H62.3093C63.9198 27.4519 65.3482 27.1517 66.5946 26.5514C67.8409 25.951 68.8072 25.0994 69.4934 23.9964C70.1796 22.8934 70.5227 21.602 70.5227 20.1221C70.5227 18.6421 70.1796 17.3507 69.4934 16.2477C68.8072 15.1447 67.8409 14.2931 66.5946 13.6927C65.3482 13.0924 63.9198 12.7922 62.3093 12.7922H56.1613ZM65.1661 23.0749C64.4099 23.787 63.4016 24.143 62.1412 24.143H59.757C59.6236 24.143 59.5155 24.0349 59.5155 23.9015V16.3426C59.5155 16.2093 59.6236 16.1011 59.757 16.1011H62.1412C63.4016 16.1011 64.4099 16.4571 65.1661 17.1692C65.9364 17.8812 66.3215 18.8655 66.3215 20.1221C66.3215 21.3786 65.9364 22.3629 65.1661 23.0749Z" fill="url(#paint0_linear_67934_75297)"/>
<path d="M94.3384 28.5785C94.0866 28.5785 93.8653 28.4117 93.796 28.1696L89.1997 12.1061C89.0966 11.7456 89.3672 11.3867 89.7421 11.3867H92.5189C92.7801 11.3867 93.0072 11.566 93.0677 11.8201L95.7935 23.2618C95.8033 23.303 95.8401 23.332 95.8824 23.332C95.9239 23.332 95.9603 23.304 95.9708 23.2638L98.9818 11.8075C99.047 11.5595 99.2711 11.3867 99.5275 11.3867H102.057C102.313 11.3867 102.537 11.5599 102.602 11.8081L105.604 23.285C105.616 23.3275 105.654 23.3572 105.698 23.3572C105.743 23.3572 105.782 23.3264 105.792 23.2829L108.517 11.8204C108.577 11.5662 108.805 11.3867 109.066 11.3867H111.842C112.217 11.3867 112.488 11.7456 112.385 12.1061L107.789 28.1696C107.719 28.4117 107.498 28.5785 107.246 28.5785H104.552C104.302 28.5785 104.081 28.413 104.011 28.1722L100.874 17.4028C100.863 17.3646 100.828 17.3384 100.788 17.3384C100.748 17.3384 100.713 17.3647 100.702 17.4029L97.5737 28.1718C97.5037 28.4128 97.2829 28.5785 97.0319 28.5785H94.3384Z" fill="white"/>
<path d="M116.761 28.822C115.938 28.822 115.205 28.6793 114.561 28.3939C113.918 28.1029 113.408 27.6747 113.033 27.1095C112.664 26.5387 112.479 25.828 112.479 24.9773C112.479 24.261 112.611 23.6594 112.874 23.1725C113.137 22.6856 113.495 22.2939 113.948 21.9973C114.402 21.7007 114.917 21.4768 115.493 21.3257C116.075 21.1746 116.685 21.0683 117.323 21.0068C118.073 20.9284 118.677 20.8557 119.136 20.7885C119.595 20.7157 119.928 20.6094 120.135 20.4695C120.342 20.3296 120.446 20.1225 120.446 19.8483V19.798C120.446 19.2663 120.278 18.855 119.942 18.564C119.612 18.273 119.142 18.1275 118.532 18.1275C117.888 18.1275 117.376 18.2702 116.996 18.5556C116.75 18.7365 116.557 18.9478 116.419 19.1896C116.286 19.4224 116.048 19.5977 115.781 19.576L113.573 19.3967C113.234 19.3691 112.993 19.0475 113.107 18.7263C113.293 18.1991 113.565 17.7281 113.923 17.3132C114.416 16.7368 115.051 16.2947 115.829 15.9869C116.612 15.6735 117.519 15.5168 118.549 15.5168C119.265 15.5168 119.951 15.6007 120.605 15.7686C121.266 15.9365 121.85 16.1967 122.36 16.5493C122.875 16.9019 123.28 17.3552 123.577 17.9092C123.874 18.4576 124.022 19.1152 124.022 19.8819V28.0144C124.022 28.326 123.769 28.5785 123.458 28.5785H121.195C120.883 28.5785 120.63 28.326 120.63 28.0144V26.8531C120.63 26.8185 120.602 26.7905 120.568 26.7905C120.544 26.7905 120.523 26.8037 120.512 26.8244C120.307 27.2134 120.036 27.5575 119.699 27.8566C119.352 28.1588 118.935 28.3967 118.448 28.5702C117.961 28.738 117.399 28.822 116.761 28.822ZM117.785 26.354C118.311 26.354 118.775 26.2505 119.178 26.0434C119.581 25.8308 119.897 25.5454 120.127 25.1872C120.356 24.829 120.471 24.4233 120.471 23.97V23.1069C120.471 22.8894 120.217 22.7379 120.009 22.8032C119.819 22.8591 119.604 22.9123 119.363 22.9627C119.122 23.0074 118.882 23.0494 118.641 23.0886C118.4 23.1222 118.182 23.1529 117.986 23.1809C117.566 23.2425 117.2 23.3404 116.887 23.4747C116.573 23.609 116.33 23.7909 116.156 24.0204C115.983 24.2442 115.896 24.524 115.896 24.8598C115.896 25.3467 116.072 25.7188 116.425 25.9763C116.783 26.2281 117.236 26.354 117.785 26.354Z" fill="white"/>
<path d="M129.808 11.3867C130.12 11.3867 130.372 11.6393 130.372 11.9509V28.0144C130.372 28.326 130.12 28.5785 129.808 28.5785H127.36C127.049 28.5785 126.796 28.326 126.796 28.0144V11.9509C126.796 11.6393 127.049 11.3867 127.36 11.3867H129.808Z" fill="white"/>
<path d="M136.249 11.3867C136.56 11.3867 136.813 11.6393 136.813 11.9509V28.0144C136.813 28.326 136.56 28.5785 136.249 28.5785H133.801C133.489 28.5785 133.237 28.326 133.237 28.0144V11.9509C133.237 11.6393 133.489 11.3867 133.801 11.3867H136.249Z" fill="white"/>
<path d="M145.554 28.8304C144.227 28.8304 143.086 28.5618 142.129 28.0245C141.177 27.4817 140.444 26.715 139.929 25.7244C139.414 24.7283 139.157 23.5503 139.157 22.1904C139.157 20.8641 139.414 19.7 139.929 18.6983C140.444 17.6965 141.169 16.9159 142.103 16.3562C143.044 15.7966 144.146 15.5168 145.411 15.5168C146.262 15.5168 147.053 15.6539 147.787 15.9281C148.525 16.1967 149.169 16.6025 149.717 17.1453C150.271 17.6882 150.702 18.3709 151.01 19.1936C151.318 20.0106 151.472 20.9676 151.472 22.0645V22.4825C151.472 22.794 151.219 23.0466 150.908 23.0466H141.148C140.837 23.0466 140.584 22.794 140.584 22.4824V21.3946C140.584 21.0831 140.837 20.8305 141.148 20.8305H147.541C147.853 20.8305 148.112 20.5757 148.057 20.2691C148.004 19.9776 147.909 19.7086 147.77 19.4622C147.546 19.0648 147.235 18.7542 146.838 18.5304C146.446 18.3009 145.99 18.1862 145.47 18.1862C144.927 18.1862 144.446 18.3121 144.026 18.564C143.612 18.8102 143.287 19.1432 143.052 19.5629C142.817 19.977 142.697 20.4387 142.691 20.948V23.055C142.691 23.693 142.809 24.2442 143.044 24.7087C143.284 25.1732 143.623 25.5314 144.059 25.7832C144.496 26.035 145.014 26.1609 145.612 26.1609C146.01 26.1609 146.373 26.105 146.704 25.9931C147.034 25.8811 147.316 25.7132 147.551 25.4894C147.69 25.3578 147.808 25.2088 147.908 25.0425C148.035 24.8296 148.258 24.6779 148.505 24.6942L150.747 24.8421C151.089 24.8648 151.335 25.1875 151.22 25.511C151.028 26.0497 150.743 26.5349 150.364 26.9668C149.849 27.5544 149.183 28.0133 148.366 28.3435C147.554 28.6681 146.617 28.8304 145.554 28.8304Z" fill="white"/>
<path d="M160.099 15.6847C160.411 15.6847 160.664 15.9373 160.664 16.2488V17.8067C160.664 18.1183 160.411 18.3709 160.099 18.3709H153.463C153.151 18.3709 152.899 18.1183 152.899 17.8067V16.2488C152.899 15.9373 153.151 15.6847 153.463 15.6847H160.099ZM154.662 13.1597C154.662 12.8481 154.914 12.5955 155.226 12.5955H157.673C157.985 12.5955 158.238 12.8481 158.238 13.1597V24.6164C158.238 24.9466 158.288 25.204 158.389 25.3887C158.489 25.5677 158.629 25.6937 158.808 25.7664C158.993 25.8392 159.206 25.8755 159.446 25.8755C159.614 25.8755 159.782 25.8615 159.95 25.8336C160.165 25.7907 160.372 25.929 160.418 26.143L160.793 27.917C160.853 28.2016 160.686 28.484 160.403 28.5519C160.322 28.5713 160.236 28.5914 160.143 28.6121C159.819 28.6905 159.424 28.738 158.96 28.7548C158.098 28.7884 157.342 28.6737 156.693 28.4107C156.049 28.1476 155.549 27.7391 155.19 27.1851C154.832 26.631 154.656 25.9315 154.662 25.0865V13.1597Z" fill="white"/>
<defs>
<linearGradient id="paint0_linear_67934_75297" x1="48.6429" y1="13.6783" x2="61.5787" y2="32.5365" gradientUnits="userSpaceOnUse">
<stop stop-color="#CC5CDC"/>
<stop offset="0.244792" stop-color="#7B66FF"/>
<stop offset="0.520833" stop-color="#1F8AF0"/>
<stop offset="0.760417" stop-color="#00D1FF"/>
<stop offset="1" stop-color="#3DEDD7"/>
</linearGradient>
</defs>
</svg>
